<svg t="1710335908432" class="icon" viewBox="0 0 1024 1024" version="1.1" xmlns="http://www.w3.org/2000/svg" p-id="4241" width="13" height="13"><path d="M914.688 217.472L559.168 14.272c-30.528-17.792-68.608-17.792-101.632 0L102.016 217.472A102.4 102.4 0 0 0 51.2 306.368v406.336c0 35.52 20.288 71.104 50.816 88.896l355.52 203.136c30.464 17.792 68.608 17.792 101.632 0l355.52-203.136a102.4 102.4 0 0 0 50.816-88.96V306.432c0-35.584-20.352-68.608-50.816-88.96z m-238.72 513.024a94.72 94.72 0 0 1-68.608-30.464L381.44 430.72v251.456a46.72 46.72 0 0 1-48.256 48.256h-2.56a48.192 48.192 0 0 1-48.256-48.256V336.832c0-25.408 22.848-48.256 55.872-48.256 25.408 0 50.816 10.176 68.608 30.464l225.984 269.184V336.832c0-27.968 22.848-48.256 48.256-48.256h2.56c27.904 0 48.256 22.848 48.256 48.256v345.408c2.56 27.904-22.848 48.256-55.872 48.256z" fill="#1296db" p-id="4242"></path></svg>